<?xml version="1.0" ?><!-- Uploaded to: SVG Repo, www.svgrepo.com, Generator: SVG Repo Mixer Tools -->
<svg fill="#000000" width="800px" height="800px" viewBox="0 0 32 32" xmlns="http://www.w3.org/2000/svg"><title/><path d="M7,29H25a1,1,0,0,0,1-1V25a1,1,0,0,0-1-1h-.994a3.743,3.743,0,0,0,.39-1.093l1.587-8.729A1,1,0,0,0,25,13H21.438l.866-1.262a4,4,0,1,0-4.064-3.18L14.328,13H7a1,1,0,0,0-.983,1.179L7.6,22.907A3.743,3.743,0,0,0,7.994,24H7a1,1,0,0,0-1,1v3A1,1,0,0,0,7,29ZM20.1,9.471a1,1,0,0,0,.185-1.014,2.011,2.011,0,0,1,1.626-2.7,2,2,0,1,1,0,3.973,1.014,1.014,0,0,0-.941.428L19.014,13H16.993ZM14.78,15H23.8L22.43,22.55A1.766,1.766,0,0,1,20.691,24H11.309A1.766,1.766,0,0,1,9.57,22.55L8.2,15ZM8,26H24v1H8Z"/></svg>